<?xml version="1.0" standalone="no"?>
<svg xmlns:xlink="http://www.w3.org/1999/xlink" id="wave" style="transform:rotate(180deg); transition: 0.3s" viewBox="0 0 1440 490" version="1.1" xmlns="http://www.w3.org/2000/svg"><defs><linearGradient id="sw-gradient-0" x1="0" x2="0" y1="1" y2="0"><stop stop-color="rgba(125.109, 98.098, 221.168, 1)" offset="0%"/><stop stop-color="rgba(185.13, 37.162, 196.124, 1)" offset="100%"/></linearGradient></defs><path style="transform:translate(0, 0px); opacity:1" fill="url(#sw-gradient-0)" d="M0,147L40,130.7C80,114,160,82,240,65.3C320,49,400,49,480,81.7C560,114,640,180,720,196C800,212,880,180,960,138.8C1040,98,1120,49,1200,57.2C1280,65,1360,131,1440,155.2C1520,180,1600,163,1680,187.8C1760,212,1840,278,1920,302.2C2000,327,2080,310,2160,269.5C2240,229,2320,163,2400,114.3C2480,65,2560,33,2640,16.3C2720,0,2800,0,2880,0C2960,0,3040,0,3120,16.3C3200,33,3280,65,3360,138.8C3440,212,3520,327,3600,326.7C3680,327,3760,212,3840,179.7C3920,147,4000,196,4080,187.8C4160,180,4240,114,4320,130.7C4400,147,4480,245,4560,236.8C4640,229,4720,114,4800,65.3C4880,16,4960,33,5040,65.3C5120,98,5200,147,5280,163.3C5360,180,5440,163,5520,196C5600,229,5680,310,5720,351.2L5760,392L5760,490L5720,490C5680,490,5600,490,5520,490C5440,490,5360,490,5280,490C5200,490,5120,490,5040,490C4960,490,4880,490,4800,490C4720,490,4640,490,4560,490C4480,490,4400,490,4320,490C4240,490,4160,490,4080,490C4000,490,3920,490,3840,490C3760,490,3680,490,3600,490C3520,490,3440,490,3360,490C3280,490,3200,490,3120,490C3040,490,2960,490,2880,490C2800,490,2720,490,2640,490C2560,490,2480,490,2400,490C2320,490,2240,490,2160,490C2080,490,2000,490,1920,490C1840,490,1760,490,1680,490C1600,490,1520,490,1440,490C1360,490,1280,490,1200,490C1120,490,1040,490,960,490C880,490,800,490,720,490C640,490,560,490,480,490C400,490,320,490,240,490C160,490,80,490,40,490L0,490Z"/></svg>